<mxfile host="Electron" agent="Mozilla/5.0 (Macintosh; Intel Mac OS X 10_15_7) AppleWebKit/537.36 (KHTML, like Gecko) draw.io/26.0.9 Chrome/128.0.6613.186 Electron/32.2.5 Safari/537.36" version="26.0.9">
  <diagram name="Page-1" id="lGo9bNtURXj7y_6rkIWY">
    <mxGraphModel dx="3816" dy="2356" grid="1" gridSize="10" guides="1" tooltips="1" connect="1" arrows="1" fold="1" page="1" pageScale="1" pageWidth="850" pageHeight="1100" math="0" shadow="0">
      <root>
        <mxCell id="0" />
        <mxCell id="1" parent="0" />
        <mxCell id="1GNT8R902nHoWRoQOwS2-74" value="" style="rounded=0;whiteSpace=wrap;html=1;" vertex="1" parent="1">
          <mxGeometry x="42.5" y="1650" width="1590" height="940" as="geometry" />
        </mxCell>
        <mxCell id="1GNT8R902nHoWRoQOwS2-5" value="" style="rounded=0;whiteSpace=wrap;html=1;" vertex="1" parent="1">
          <mxGeometry x="40" y="560" width="1620" height="1030" as="geometry" />
        </mxCell>
        <mxCell id="a_ZhXs76VvJXivsuq5wO-75" value="" style="rounded=0;whiteSpace=wrap;html=1;fillColor=#d5e8d4;strokeColor=#82b366;" parent="1" vertex="1">
          <mxGeometry x="595" y="840" width="485" height="620" as="geometry" />
        </mxCell>
        <mxCell id="a_ZhXs76VvJXivsuq5wO-3" value="" style="edgeStyle=orthogonalEdgeStyle;rounded=0;orthogonalLoop=1;jettySize=auto;html=1;" parent="1" source="a_ZhXs76VvJXivsuq5wO-1" target="a_ZhXs76VvJXivsuq5wO-2" edge="1">
          <mxGeometry relative="1" as="geometry" />
        </mxCell>
        <mxCell id="a_ZhXs76VvJXivsuq5wO-1" value="Server" style="shape=document;whiteSpace=wrap;html=1;boundedLbl=1;" parent="1" vertex="1">
          <mxGeometry x="377.5" y="40" width="160" height="40" as="geometry" />
        </mxCell>
        <mxCell id="a_ZhXs76VvJXivsuq5wO-36" style="edgeStyle=orthogonalEdgeStyle;rounded=0;orthogonalLoop=1;jettySize=auto;html=1;" parent="1" source="a_ZhXs76VvJXivsuq5wO-2" target="a_ZhXs76VvJXivsuq5wO-35" edge="1">
          <mxGeometry relative="1" as="geometry" />
        </mxCell>
        <mxCell id="a_ZhXs76VvJXivsuq5wO-2" value="print_PID()" style="shape=process;whiteSpace=wrap;html=1;backgroundOutline=1;fillColor=#dae8fc;strokeColor=#6c8ebf;" parent="1" vertex="1">
          <mxGeometry x="377.5" y="120" width="160" height="30" as="geometry" />
        </mxCell>
        <mxCell id="a_ZhXs76VvJXivsuq5wO-4" value="" style="edgeStyle=orthogonalEdgeStyle;rounded=0;orthogonalLoop=1;jettySize=auto;html=1;entryX=0.5;entryY=0;entryDx=0;entryDy=0;" parent="1" source="a_ZhXs76VvJXivsuq5wO-5" target="a_ZhXs76VvJXivsuq5wO-40" edge="1">
          <mxGeometry relative="1" as="geometry">
            <mxPoint x="1302.5" y="130" as="targetPoint" />
          </mxGeometry>
        </mxCell>
        <mxCell id="a_ZhXs76VvJXivsuq5wO-5" value="Client" style="shape=document;whiteSpace=wrap;html=1;boundedLbl=1;" parent="1" vertex="1">
          <mxGeometry x="1242.5" y="40" width="120" height="40" as="geometry" />
        </mxCell>
        <mxCell id="a_ZhXs76VvJXivsuq5wO-9" value="wait_&amp;amp;_print_client_msg()" style="shape=process;whiteSpace=wrap;html=1;backgroundOutline=1;fillColor=#d5e8d4;strokeColor=#82b366;" parent="1" vertex="1">
          <mxGeometry x="367.5" y="340" width="180" height="40" as="geometry" />
        </mxCell>
        <mxCell id="a_ZhXs76VvJXivsuq5wO-13" style="edgeStyle=orthogonalEdgeStyle;rounded=0;orthogonalLoop=1;jettySize=auto;html=1;entryX=1;entryY=0.5;entryDx=0;entryDy=0;exitX=0.5;exitY=1;exitDx=0;exitDy=0;" parent="1" source="a_ZhXs76VvJXivsuq5wO-9" target="a_ZhXs76VvJXivsuq5wO-35" edge="1">
          <mxGeometry relative="1" as="geometry">
            <mxPoint x="587.5" y="300" as="targetPoint" />
            <mxPoint x="457.5" y="450" as="sourcePoint" />
            <Array as="points">
              <mxPoint x="457.5" y="410" />
              <mxPoint x="577.5" y="410" />
              <mxPoint x="577.5" y="241" />
            </Array>
          </mxGeometry>
        </mxCell>
        <mxCell id="a_ZhXs76VvJXivsuq5wO-15" value="" style="rounded=0;whiteSpace=wrap;html=1;fillColor=#dae8fc;strokeColor=#6c8ebf;" parent="1" vertex="1">
          <mxGeometry x="90" y="600" width="275" height="130" as="geometry" />
        </mxCell>
        <mxCell id="a_ZhXs76VvJXivsuq5wO-16" value="&lt;b&gt;&lt;font style=&quot;font-size: 20px;&quot;&gt;1&lt;/font&gt;&lt;/b&gt;" style="ellipse;whiteSpace=wrap;html=1;fillColor=#dae8fc;strokeColor=#6c8ebf;" parent="1" vertex="1">
          <mxGeometry x="317.5" y="115" width="40" height="40" as="geometry" />
        </mxCell>
        <mxCell id="a_ZhXs76VvJXivsuq5wO-17" value="&lt;b&gt;&lt;font style=&quot;font-size: 20px;&quot;&gt;2&lt;/font&gt;&lt;/b&gt;" style="ellipse;whiteSpace=wrap;html=1;fillColor=#d5e8d4;strokeColor=#82b366;" parent="1" vertex="1">
          <mxGeometry x="317.5" y="320" width="40" height="40" as="geometry" />
        </mxCell>
        <mxCell id="a_ZhXs76VvJXivsuq5wO-21" value="&lt;b&gt;&lt;font style=&quot;font-size: 20px;&quot;&gt;1&lt;/font&gt;&lt;/b&gt;" style="ellipse;whiteSpace=wrap;html=1;fillColor=#dae8fc;strokeColor=#6c8ebf;" parent="1" vertex="1">
          <mxGeometry x="100" y="610" width="40" height="40" as="geometry" />
        </mxCell>
        <mxCell id="a_ZhXs76VvJXivsuq5wO-22" value="&lt;b style=&quot;&quot;&gt;&lt;font style=&quot;font-size: 18px;&quot;&gt;print_PID&lt;/font&gt;&lt;/b&gt;" style="text;html=1;align=center;verticalAlign=middle;whiteSpace=wrap;rounded=0;" parent="1" vertex="1">
          <mxGeometry x="140" y="615" width="100" height="30" as="geometry" />
        </mxCell>
        <mxCell id="a_ZhXs76VvJXivsuq5wO-23" value="ft_printf(&quot;PID = %d\n&quot;, get_pid)" style="shape=process;whiteSpace=wrap;html=1;backgroundOutline=1;" parent="1" vertex="1">
          <mxGeometry x="121.25" y="670" width="212.5" height="30" as="geometry" />
        </mxCell>
        <mxCell id="a_ZhXs76VvJXivsuq5wO-24" value="&lt;h1 style=&quot;margin-top: 0px;&quot;&gt;PID&lt;/h1&gt;&lt;p&gt;PID or process ID is a decimal number used to identify each process on a computer. the function getpidof unistd.h returns this number.&lt;/p&gt;" style="text;html=1;whiteSpace=wrap;overflow=hidden;rounded=0;strokeColor=default;verticalAlign=middle;align=center;" parent="1" vertex="1">
          <mxGeometry x="1332.5" y="2680" width="150" height="160" as="geometry" />
        </mxCell>
        <mxCell id="a_ZhXs76VvJXivsuq5wO-32" value="" style="rounded=0;whiteSpace=wrap;html=1;fillColor=#d5e8d4;strokeColor=#82b366;" parent="1" vertex="1">
          <mxGeometry x="80" y="840" width="450" height="620" as="geometry" />
        </mxCell>
        <mxCell id="a_ZhXs76VvJXivsuq5wO-33" value="&lt;b&gt;&lt;font style=&quot;font-size: 20px;&quot;&gt;2&lt;/font&gt;&lt;/b&gt;" style="ellipse;whiteSpace=wrap;html=1;fillColor=#d5e8d4;strokeColor=#82b366;" parent="1" vertex="1">
          <mxGeometry x="102.5" y="850" width="40" height="40" as="geometry" />
        </mxCell>
        <mxCell id="a_ZhXs76VvJXivsuq5wO-34" value="&lt;span style=&quot;font-size: 18px;&quot;&gt;&lt;b&gt;wait_for_client_msg&lt;/b&gt;&lt;/span&gt;" style="text;html=1;align=center;verticalAlign=middle;whiteSpace=wrap;rounded=0;" parent="1" vertex="1">
          <mxGeometry x="142.5" y="855" width="185" height="30" as="geometry" />
        </mxCell>
        <mxCell id="a_ZhXs76VvJXivsuq5wO-37" style="edgeStyle=orthogonalEdgeStyle;rounded=0;orthogonalLoop=1;jettySize=auto;html=1;" parent="1" source="a_ZhXs76VvJXivsuq5wO-35" target="a_ZhXs76VvJXivsuq5wO-9" edge="1">
          <mxGeometry relative="1" as="geometry" />
        </mxCell>
        <mxCell id="a_ZhXs76VvJXivsuq5wO-38" value="vrai" style="edgeLabel;html=1;align=center;verticalAlign=middle;resizable=0;points=[];" parent="a_ZhXs76VvJXivsuq5wO-37" vertex="1" connectable="0">
          <mxGeometry x="0.5667" y="-1" relative="1" as="geometry">
            <mxPoint x="1" y="-21" as="offset" />
          </mxGeometry>
        </mxCell>
        <mxCell id="a_ZhXs76VvJXivsuq5wO-35" value="while (true)&lt;br&gt;(le programme se repete indefiniment)" style="rhombus;whiteSpace=wrap;html=1;" parent="1" vertex="1">
          <mxGeometry x="372.5" y="180" width="170" height="121.43" as="geometry" />
        </mxCell>
        <mxCell id="a_ZhXs76VvJXivsuq5wO-39" value="&lt;h1 style=&quot;margin-top: 0px;&quot;&gt;SIGACTION&lt;/h1&gt;&lt;p&gt;&lt;br&gt;&lt;/p&gt;&lt;p&gt;&lt;font style=&quot;background-color: transparent; color: rgb(255, 51, 51);&quot;&gt;-&amp;nbsp;&lt;/font&gt;&lt;font style=&quot;background-color: transparent; color: rgb(255, 51, 51);&quot;&gt;int&lt;/font&gt;&lt;span style=&quot;background-color: transparent; color: light-dark(rgb(0, 0, 0), rgb(255, 255, 255));&quot;&gt; sigaction(&lt;/span&gt;&lt;font style=&quot;background-color: transparent; color: rgb(102, 102, 255);&quot;&gt;int signum&lt;/font&gt;&lt;span style=&quot;background-color: transparent; color: light-dark(rgb(0, 0, 0), rgb(255, 255, 255));&quot;&gt;, &lt;/span&gt;&lt;font style=&quot;background-color: transparent; color: rgb(255, 153, 51);&quot;&gt;const struct sigaction *_Nullable restrict act&lt;/font&gt;&lt;span style=&quot;background-color: transparent; color: light-dark(rgb(0, 0, 0), rgb(255, 255, 255));&quot;&gt;, &lt;/span&gt;&lt;font style=&quot;background-color: transparent; color: rgb(0, 153, 153);&quot;&gt;struct sigaction *_Nullable restrict oldact&lt;/font&gt;&lt;span style=&quot;background-color: transparent; color: light-dark(rgb(0, 0, 0), rgb(255, 255, 255));&quot;&gt;);&lt;/span&gt;&lt;br&gt;&lt;/p&gt;&lt;p&gt;output :&lt;/p&gt;&lt;p&gt;&lt;span style=&quot;color: light-dark(rgb(255, 51, 51), rgb(255, 51, 51)); background-color: transparent;&quot;&gt;&lt;span style=&quot;white-space: pre;&quot;&gt;&#x9;&lt;/span&gt;int &lt;span style=&quot;white-space: pre;&quot;&gt;&#x9;&lt;/span&gt;&lt;span style=&quot;white-space: pre;&quot;&gt;&#x9;&lt;/span&gt;&lt;span style=&quot;white-space: pre;&quot;&gt;&#x9;&lt;/span&gt;&lt;span style=&quot;white-space: pre;&quot;&gt;&#x9;&lt;/span&gt;&lt;span style=&quot;white-space: pre;&quot;&gt;&#x9;&lt;/span&gt;&lt;span style=&quot;white-space: pre;&quot;&gt;&#x9;&lt;/span&gt;&lt;span style=&quot;white-space: pre;&quot;&gt;&#x9;&lt;/span&gt;&lt;span style=&quot;white-space: pre;&quot;&gt;&#x9;&lt;/span&gt;&lt;span style=&quot;white-space: pre;&quot;&gt;&#x9;&lt;/span&gt;-&amp;gt;&amp;nbsp; 0 si pas d&#39;erreur, -1 si erreur&lt;/span&gt;&lt;/p&gt;&lt;p&gt;input :&lt;span style=&quot;color: light-dark(rgb(255, 51, 51), rgb(255, 51, 51)); background-color: transparent;&quot;&gt;&lt;br&gt;&lt;/span&gt;&lt;/p&gt;&lt;p&gt;&lt;span style=&quot;color: rgb(102, 102, 255); background-color: transparent;&quot;&gt;&lt;span style=&quot;white-space: pre;&quot;&gt;&#x9;&lt;/span&gt;int signum &lt;span style=&quot;white-space: pre;&quot;&gt;&#x9;&lt;/span&gt;&lt;span style=&quot;white-space: pre;&quot;&gt;&#x9;&lt;/span&gt;&lt;span style=&quot;white-space: pre;&quot;&gt;&#x9;&lt;/span&gt;&lt;span style=&quot;white-space: pre;&quot;&gt;&#x9;&lt;/span&gt;&lt;span style=&quot;white-space: pre;&quot;&gt;&#x9;&lt;/span&gt;&lt;span style=&quot;white-space: pre;&quot;&gt;&#x9;&lt;/span&gt;&lt;span style=&quot;white-space: pre;&quot;&gt;&#x9;&lt;/span&gt;-&amp;gt; le numero du signal que l&#39;on veut intercepter&lt;/span&gt;&lt;/p&gt;&lt;p&gt;&lt;span style=&quot;color: rgb(255, 153, 51); background-color: transparent;&quot;&gt;&lt;span style=&quot;white-space: pre;&quot;&gt;&#x9;&lt;/span&gt;const struct sigaction *_Nullable restrict act &lt;span style=&quot;white-space: pre;&quot;&gt;&#x9;&lt;/span&gt;-&amp;gt; pointeur sur une structure qui definit comment gerer le signal, par ex: dans &lt;span style=&quot;white-space: pre;&quot;&gt;&#x9;&lt;/span&gt;&lt;span style=&quot;white-space: pre;&quot;&gt;&#x9;&lt;/span&gt;&lt;span style=&quot;white-space: pre;&quot;&gt;&#x9;&lt;/span&gt;&lt;span style=&quot;white-space: pre;&quot;&gt;&#x9;&lt;/span&gt;&lt;span style=&quot;white-space: pre;&quot;&gt;&#x9;&lt;/span&gt;&lt;span style=&quot;white-space: pre;&quot;&gt;&#x9;&lt;/span&gt;&lt;span style=&quot;white-space: pre;&quot;&gt;&#x9;&lt;/span&gt;&lt;span style=&quot;white-space: pre;&quot;&gt;&#x9;&lt;/span&gt;&lt;span style=&quot;white-space: pre;&quot;&gt;&#x9;&lt;/span&gt;&lt;span style=&quot;white-space: pre;&quot;&gt;&#x9;&lt;/span&gt;ce programme on va configurer cette structure pour executer une fonction &lt;span style=&quot;white-space: pre;&quot;&gt;&#x9;&lt;/span&gt;&lt;span style=&quot;white-space: pre;&quot;&gt;&#x9;&lt;/span&gt;&lt;span style=&quot;white-space: pre;&quot;&gt;&#x9;&lt;/span&gt;&lt;span style=&quot;white-space: pre;&quot;&gt;&#x9;&lt;/span&gt;&lt;span style=&quot;white-space: pre;&quot;&gt;&#x9;&lt;/span&gt;&lt;span style=&quot;white-space: pre;&quot;&gt;&#x9;&lt;/span&gt;&lt;span style=&quot;white-space: pre;&quot;&gt;&#x9;&lt;/span&gt;&lt;span style=&quot;white-space: pre;&quot;&gt;&#x9;&lt;/span&gt;&lt;span style=&quot;white-space: pre;&quot;&gt;&#x9;&lt;/span&gt;&lt;span style=&quot;white-space: pre;&quot;&gt;&#x9;&lt;/span&gt;quand on recoit un signal SIGURS1 ou SIGURS2 pour gerer la reception d&#39;un &lt;span style=&quot;white-space: pre;&quot;&gt;&#x9;&lt;/span&gt;&lt;span style=&quot;white-space: pre;&quot;&gt;&#x9;&lt;/span&gt;&lt;span style=&quot;white-space: pre;&quot;&gt;&#x9;&lt;/span&gt;&lt;span style=&quot;white-space: pre;&quot;&gt;&#x9;&lt;/span&gt;&lt;span style=&quot;white-space: pre;&quot;&gt;&#x9;&lt;/span&gt;&lt;span style=&quot;white-space: pre;&quot;&gt;&#x9;&lt;/span&gt;&lt;span style=&quot;white-space: pre;&quot;&gt;&#x9;&lt;/span&gt;&lt;span style=&quot;white-space: pre;&quot;&gt;&#x9;&lt;/span&gt;&lt;span style=&quot;white-space: pre;&quot;&gt;&#x9;&lt;/span&gt;&lt;span style=&quot;white-space: pre;&quot;&gt;&#x9;&lt;/span&gt;bit 0 ou 1 et recreer un char de 8 bits.&lt;/span&gt;&lt;/p&gt;&lt;p&gt;&lt;span style=&quot;color: rgb(0, 153, 153);&quot;&gt;&lt;span style=&quot;white-space: pre;&quot;&gt;&#x9;&lt;/span&gt;struct sigaction *_Nullable restrict oldact&lt;span style=&quot;white-space: pre;&quot;&gt;&#x9;&lt;/span&gt;-&amp;gt; pointeur sur un sigaction, permet d&#39;avoir une sauvegarde de l&#39;ancien &lt;span style=&quot;white-space: pre;&quot;&gt;&#x9;&lt;/span&gt;&lt;span style=&quot;white-space: pre;&quot;&gt;&#x9;&lt;/span&gt;&lt;span style=&quot;white-space: pre;&quot;&gt;&#x9;&lt;/span&gt;&lt;span style=&quot;white-space: pre;&quot;&gt;&#x9;&lt;/span&gt;&lt;span style=&quot;white-space: pre;&quot;&gt;&#x9;&lt;/span&gt;&lt;span style=&quot;white-space: pre;&quot;&gt;&#x9;&lt;/span&gt;&lt;span style=&quot;white-space: pre;&quot;&gt;&#x9;&lt;/span&gt;&lt;span style=&quot;white-space: pre;&quot;&gt;&#x9;&lt;/span&gt;&lt;span style=&quot;white-space: pre;&quot;&gt;&#x9;&lt;/span&gt;&lt;span style=&quot;white-space: pre;&quot;&gt;&#x9;&lt;/span&gt;comportement pour le restaurer. par ex: on veut remettre le traitement de &lt;span style=&quot;white-space: pre;&quot;&gt;&#x9;&lt;/span&gt;&lt;span style=&quot;white-space: pre;&quot;&gt;&#x9;&lt;/span&gt;&lt;span style=&quot;white-space: pre;&quot;&gt;&#x9;&lt;/span&gt;&lt;span style=&quot;white-space: pre;&quot;&gt;&#x9;&lt;/span&gt;&lt;span style=&quot;white-space: pre;&quot;&gt;&#x9;&lt;/span&gt;&lt;span style=&quot;white-space: pre;&quot;&gt;&#x9;&lt;/span&gt;&lt;span style=&quot;white-space: pre;&quot;&gt;&#x9;&lt;/span&gt;&lt;span style=&quot;white-space: pre;&quot;&gt;&#x9;&lt;/span&gt;&lt;span style=&quot;white-space: pre;&quot;&gt;&#x9;&lt;/span&gt;&lt;span style=&quot;white-space: pre;&quot;&gt;&#x9;&lt;/span&gt;signal par defaut apres un ctrl-c&lt;/span&gt;&lt;span style=&quot;color: rgb(255, 153, 51); background-color: transparent;&quot;&gt;&lt;br&gt;&lt;/span&gt;&lt;/p&gt;&lt;p&gt;&lt;/p&gt;&lt;p&gt;&lt;/p&gt;" style="text;html=1;whiteSpace=wrap;overflow=hidden;rounded=0;verticalAlign=top;align=left;strokeColor=default;" parent="1" vertex="1">
          <mxGeometry x="607.5" y="2680" width="690" height="330" as="geometry" />
        </mxCell>
        <mxCell id="a_ZhXs76VvJXivsuq5wO-40" value="send msg to server at &#39;pid&#39;" style="shape=process;whiteSpace=wrap;html=1;backgroundOutline=1;fillColor=#fff2cc;strokeColor=#d6b656;" parent="1" vertex="1">
          <mxGeometry x="1242.5" y="210" width="120" height="40" as="geometry" />
        </mxCell>
        <mxCell id="a_ZhXs76VvJXivsuq5wO-42" value="&lt;b&gt;&lt;font style=&quot;font-size: 20px;&quot;&gt;3&lt;/font&gt;&lt;/b&gt;" style="ellipse;whiteSpace=wrap;html=1;fillColor=#fff2cc;strokeColor=#d6b656;" parent="1" vertex="1">
          <mxGeometry x="1177.5" y="210" width="40" height="40" as="geometry" />
        </mxCell>
        <mxCell id="a_ZhXs76VvJXivsuq5wO-48" value="" style="edgeStyle=orthogonalEdgeStyle;rounded=0;orthogonalLoop=1;jettySize=auto;html=1;entryX=0.5;entryY=0;entryDx=0;entryDy=0;" parent="1" source="a_ZhXs76VvJXivsuq5wO-44" target="a_ZhXs76VvJXivsuq5wO-49" edge="1">
          <mxGeometry relative="1" as="geometry">
            <mxPoint x="210" y="1025" as="targetPoint" />
          </mxGeometry>
        </mxCell>
        <mxCell id="a_ZhXs76VvJXivsuq5wO-44" value="struct sigaction sa;" style="rounded=0;whiteSpace=wrap;html=1;" parent="1" vertex="1">
          <mxGeometry x="150" y="930" width="120" height="30" as="geometry" />
        </mxCell>
        <mxCell id="a_ZhXs76VvJXivsuq5wO-45" value="" style="shape=flexArrow;endArrow=classic;html=1;rounded=0;entryX=0;entryY=0.5;entryDx=0;entryDy=0;exitX=1;exitY=0.5;exitDx=0;exitDy=0;" parent="1" source="a_ZhXs76VvJXivsuq5wO-44" target="a_ZhXs76VvJXivsuq5wO-46" edge="1">
          <mxGeometry width="50" height="50" relative="1" as="geometry">
            <mxPoint x="300" y="950" as="sourcePoint" />
            <mxPoint x="340" y="920" as="targetPoint" />
          </mxGeometry>
        </mxCell>
        <mxCell id="a_ZhXs76VvJXivsuq5wO-46" value="declaration de la structure sigaction servant a definir le type de signal qu&#39;on veut traiter" style="text;html=1;align=center;verticalAlign=middle;whiteSpace=wrap;rounded=0;" parent="1" vertex="1">
          <mxGeometry x="380" y="930" width="110" height="30" as="geometry" />
        </mxCell>
        <mxCell id="a_ZhXs76VvJXivsuq5wO-55" value="" style="edgeStyle=orthogonalEdgeStyle;rounded=0;orthogonalLoop=1;jettySize=auto;html=1;" parent="1" source="a_ZhXs76VvJXivsuq5wO-49" target="a_ZhXs76VvJXivsuq5wO-54" edge="1">
          <mxGeometry relative="1" as="geometry" />
        </mxCell>
        <mxCell id="a_ZhXs76VvJXivsuq5wO-87" style="edgeStyle=orthogonalEdgeStyle;rounded=0;orthogonalLoop=1;jettySize=auto;html=1;entryX=0.004;entryY=0.266;entryDx=0;entryDy=0;shape=flexArrow;entryPerimeter=0;" parent="1" source="a_ZhXs76VvJXivsuq5wO-49" target="a_ZhXs76VvJXivsuq5wO-75" edge="1">
          <mxGeometry relative="1" as="geometry">
            <Array as="points" />
          </mxGeometry>
        </mxCell>
        <mxCell id="a_ZhXs76VvJXivsuq5wO-49" value="sigaction_config(sigaction sa)" style="shape=process;whiteSpace=wrap;html=1;backgroundOutline=1;" parent="1" vertex="1">
          <mxGeometry x="102.5" y="990" width="215" height="30" as="geometry" />
        </mxCell>
        <mxCell id="a_ZhXs76VvJXivsuq5wO-57" style="edgeStyle=orthogonalEdgeStyle;rounded=0;orthogonalLoop=1;jettySize=auto;html=1;entryX=0.5;entryY=0;entryDx=0;entryDy=0;" parent="1" source="a_ZhXs76VvJXivsuq5wO-54" target="a_ZhXs76VvJXivsuq5wO-56" edge="1">
          <mxGeometry relative="1" as="geometry" />
        </mxCell>
        <mxCell id="1GNT8R902nHoWRoQOwS2-53" value="vrai" style="edgeLabel;html=1;align=center;verticalAlign=middle;resizable=0;points=[];" vertex="1" connectable="0" parent="a_ZhXs76VvJXivsuq5wO-57">
          <mxGeometry x="-0.3467" y="1" relative="1" as="geometry">
            <mxPoint as="offset" />
          </mxGeometry>
        </mxCell>
        <mxCell id="a_ZhXs76VvJXivsuq5wO-54" value="while (1)" style="rhombus;whiteSpace=wrap;html=1;" parent="1" vertex="1">
          <mxGeometry x="170" y="1062.5" width="80" height="67.5" as="geometry" />
        </mxCell>
        <mxCell id="a_ZhXs76VvJXivsuq5wO-56" value="pause();" style="shape=process;whiteSpace=wrap;html=1;backgroundOutline=1;" parent="1" vertex="1">
          <mxGeometry x="150" y="1180" width="120" height="30" as="geometry" />
        </mxCell>
        <mxCell id="a_ZhXs76VvJXivsuq5wO-58" value="" style="shape=flexArrow;endArrow=classic;html=1;rounded=0;exitX=1;exitY=0.5;exitDx=0;exitDy=0;entryX=0;entryY=0.5;entryDx=0;entryDy=0;" parent="1" source="a_ZhXs76VvJXivsuq5wO-56" target="a_ZhXs76VvJXivsuq5wO-59" edge="1">
          <mxGeometry width="50" height="50" relative="1" as="geometry">
            <mxPoint x="310" y="1240" as="sourcePoint" />
            <mxPoint x="360" y="1190" as="targetPoint" />
          </mxGeometry>
        </mxCell>
        <mxCell id="a_ZhXs76VvJXivsuq5wO-59" value="pause permet d&#39;arretter le programme jusqu&#39;a ce qu&#39;un signal soit recu (il sera traite par la fonction &#39;handle signal&#39; comme configure plus haut." style="text;html=1;align=center;verticalAlign=middle;whiteSpace=wrap;rounded=0;" parent="1" vertex="1">
          <mxGeometry x="360" y="1155" width="130" height="80" as="geometry" />
        </mxCell>
        <mxCell id="a_ZhXs76VvJXivsuq5wO-62" value="" style="endArrow=classic;html=1;rounded=0;entryX=0;entryY=0.5;entryDx=0;entryDy=0;exitX=0.5;exitY=1;exitDx=0;exitDy=0;" parent="1" source="a_ZhXs76VvJXivsuq5wO-56" target="a_ZhXs76VvJXivsuq5wO-54" edge="1">
          <mxGeometry width="50" height="50" relative="1" as="geometry">
            <mxPoint x="80" y="1150" as="sourcePoint" />
            <mxPoint x="130" y="1100" as="targetPoint" />
            <Array as="points">
              <mxPoint x="210" y="1250" />
              <mxPoint x="110" y="1250" />
              <mxPoint x="110" y="1096" />
            </Array>
          </mxGeometry>
        </mxCell>
        <mxCell id="a_ZhXs76VvJXivsuq5wO-68" style="edgeStyle=orthogonalEdgeStyle;rounded=0;orthogonalLoop=1;jettySize=auto;html=1;entryX=0.5;entryY=0;entryDx=0;entryDy=0;" parent="1" source="a_ZhXs76VvJXivsuq5wO-63" target="a_ZhXs76VvJXivsuq5wO-64" edge="1">
          <mxGeometry relative="1" as="geometry" />
        </mxCell>
        <mxCell id="a_ZhXs76VvJXivsuq5wO-63" value="&lt;span style=&quot;text-align: left;&quot;&gt;sa.sa_flags = SA_RESTART;&lt;/span&gt;" style="rounded=0;whiteSpace=wrap;html=1;" parent="1" vertex="1">
          <mxGeometry x="650" y="890" width="120" height="60" as="geometry" />
        </mxCell>
        <mxCell id="a_ZhXs76VvJXivsuq5wO-73" style="edgeStyle=orthogonalEdgeStyle;rounded=0;orthogonalLoop=1;jettySize=auto;html=1;entryX=0.5;entryY=0;entryDx=0;entryDy=0;" parent="1" source="a_ZhXs76VvJXivsuq5wO-64" target="a_ZhXs76VvJXivsuq5wO-72" edge="1">
          <mxGeometry relative="1" as="geometry" />
        </mxCell>
        <mxCell id="a_ZhXs76VvJXivsuq5wO-64" value="&lt;span style=&quot;text-align: left;&quot;&gt;sa.sa_handler = handle_signal;&lt;/span&gt;" style="rounded=0;whiteSpace=wrap;html=1;" parent="1" vertex="1">
          <mxGeometry x="650" y="980" width="120" height="60" as="geometry" />
        </mxCell>
        <mxCell id="1GNT8R902nHoWRoQOwS2-31" value="" style="edgeStyle=orthogonalEdgeStyle;rounded=0;orthogonalLoop=1;jettySize=auto;html=1;" edge="1" parent="1" source="a_ZhXs76VvJXivsuq5wO-66" target="1GNT8R902nHoWRoQOwS2-30">
          <mxGeometry relative="1" as="geometry" />
        </mxCell>
        <mxCell id="a_ZhXs76VvJXivsuq5wO-66" value="sigaction(SIGUSR2, &amp;amp;sa, &lt;span class=&quot;hljs-literal&quot;&gt;NULL&lt;/span&gt;)" style="rounded=0;whiteSpace=wrap;html=1;" parent="1" vertex="1">
          <mxGeometry x="650" y="1260" width="120" height="60" as="geometry" />
        </mxCell>
        <mxCell id="a_ZhXs76VvJXivsuq5wO-71" style="edgeStyle=orthogonalEdgeStyle;rounded=0;orthogonalLoop=1;jettySize=auto;html=1;entryX=0.5;entryY=0;entryDx=0;entryDy=0;" parent="1" source="a_ZhXs76VvJXivsuq5wO-67" target="a_ZhXs76VvJXivsuq5wO-66" edge="1">
          <mxGeometry relative="1" as="geometry" />
        </mxCell>
        <mxCell id="a_ZhXs76VvJXivsuq5wO-67" value="sigaction(SIGUSR1, &amp;amp;sa, &lt;span class=&quot;hljs-literal&quot;&gt;NULL&lt;/span&gt;)" style="rounded=0;whiteSpace=wrap;html=1;" parent="1" vertex="1">
          <mxGeometry x="650" y="1170" width="120" height="60" as="geometry" />
        </mxCell>
        <mxCell id="a_ZhXs76VvJXivsuq5wO-74" style="edgeStyle=orthogonalEdgeStyle;rounded=0;orthogonalLoop=1;jettySize=auto;html=1;entryX=0.5;entryY=0;entryDx=0;entryDy=0;" parent="1" source="a_ZhXs76VvJXivsuq5wO-72" target="a_ZhXs76VvJXivsuq5wO-67" edge="1">
          <mxGeometry relative="1" as="geometry" />
        </mxCell>
        <mxCell id="a_ZhXs76VvJXivsuq5wO-72" value="&lt;span style=&quot;text-align: left;&quot;&gt;sigemptyset(&amp;amp;sa.sa_mask)&amp;nbsp;&lt;/span&gt;" style="shape=process;whiteSpace=wrap;html=1;backgroundOutline=1;" parent="1" vertex="1">
          <mxGeometry x="615" y="1075" width="190" height="60" as="geometry" />
        </mxCell>
        <mxCell id="a_ZhXs76VvJXivsuq5wO-77" value="" style="shape=flexArrow;endArrow=classic;html=1;rounded=0;exitX=1;exitY=0.5;exitDx=0;exitDy=0;entryX=0;entryY=0.5;entryDx=0;entryDy=0;" parent="1" source="a_ZhXs76VvJXivsuq5wO-63" target="a_ZhXs76VvJXivsuq5wO-78" edge="1">
          <mxGeometry width="50" height="50" relative="1" as="geometry">
            <mxPoint x="970" y="900" as="sourcePoint" />
            <mxPoint x="1020" y="850" as="targetPoint" />
          </mxGeometry>
        </mxCell>
        <mxCell id="a_ZhXs76VvJXivsuq5wO-78" value="&lt;span style=&quot;text-align: left;&quot;&gt;redemarre le gestionnaire de signaux (eviter qu&#39;il soit deja bloque par autre chose)&lt;/span&gt;" style="text;html=1;align=center;verticalAlign=middle;whiteSpace=wrap;rounded=0;" parent="1" vertex="1">
          <mxGeometry x="850" y="905" width="170" height="30" as="geometry" />
        </mxCell>
        <mxCell id="a_ZhXs76VvJXivsuq5wO-79" value="" style="shape=flexArrow;endArrow=classic;html=1;rounded=0;exitX=1;exitY=0.5;exitDx=0;exitDy=0;entryX=0;entryY=0.5;entryDx=0;entryDy=0;" parent="1" source="a_ZhXs76VvJXivsuq5wO-64" target="a_ZhXs76VvJXivsuq5wO-80" edge="1">
          <mxGeometry width="50" height="50" relative="1" as="geometry">
            <mxPoint x="800" y="1000" as="sourcePoint" />
            <mxPoint x="1050" y="950" as="targetPoint" />
          </mxGeometry>
        </mxCell>
        <mxCell id="1GNT8R902nHoWRoQOwS2-50" style="edgeStyle=orthogonalEdgeStyle;rounded=0;orthogonalLoop=1;jettySize=auto;html=1;shape=flexArrow;" edge="1" parent="1" source="a_ZhXs76VvJXivsuq5wO-80">
          <mxGeometry relative="1" as="geometry">
            <mxPoint x="1139" y="1009" as="targetPoint" />
          </mxGeometry>
        </mxCell>
        <mxCell id="a_ZhXs76VvJXivsuq5wO-80" value="&lt;span style=&quot;text-align: left;&quot;&gt;pointeur associe a la fonction &#39;handle_signal&#39;, elle sera appelee quand un signal est recu&lt;/span&gt;" style="text;html=1;align=center;verticalAlign=middle;whiteSpace=wrap;rounded=0;" parent="1" vertex="1">
          <mxGeometry x="850" y="995" width="180" height="30" as="geometry" />
        </mxCell>
        <mxCell id="a_ZhXs76VvJXivsuq5wO-81" value="" style="shape=flexArrow;endArrow=classic;html=1;rounded=0;exitX=1;exitY=0.5;exitDx=0;exitDy=0;entryX=0;entryY=0.5;entryDx=0;entryDy=0;" parent="1" source="a_ZhXs76VvJXivsuq5wO-72" target="a_ZhXs76VvJXivsuq5wO-82" edge="1">
          <mxGeometry width="50" height="50" relative="1" as="geometry">
            <mxPoint x="840" y="1165" as="sourcePoint" />
            <mxPoint x="1090" y="1115" as="targetPoint" />
          </mxGeometry>
        </mxCell>
        <mxCell id="a_ZhXs76VvJXivsuq5wO-82" value="&lt;span style=&quot;text-align: left;&quot;&gt;initialise &#39;sa_mask&#39; a un ensemble vide. sa_mask est utilise pour bloquer certains signaux en utilisant sigemptyset on s&#39;assure que aucun signal supplementaire ne sera bloque quand &#39;handle_signal&#39; sera execute&lt;/span&gt;" style="text;html=1;align=center;verticalAlign=middle;whiteSpace=wrap;rounded=0;" parent="1" vertex="1">
          <mxGeometry x="840" y="1090" width="210" height="30" as="geometry" />
        </mxCell>
        <mxCell id="a_ZhXs76VvJXivsuq5wO-83" value="" style="shape=flexArrow;endArrow=classic;html=1;rounded=0;exitX=1;exitY=0.5;exitDx=0;exitDy=0;entryX=0;entryY=0.5;entryDx=0;entryDy=0;" parent="1" source="a_ZhXs76VvJXivsuq5wO-67" target="a_ZhXs76VvJXivsuq5wO-84" edge="1">
          <mxGeometry width="50" height="50" relative="1" as="geometry">
            <mxPoint x="825" y="1245" as="sourcePoint" />
            <mxPoint x="1075" y="1195" as="targetPoint" />
          </mxGeometry>
        </mxCell>
        <mxCell id="a_ZhXs76VvJXivsuq5wO-84" value="&lt;span style=&quot;text-align: left;&quot;&gt;associe &#39;sa&#39; au signal SIGUSR1, NULL est la pour dire qu&#39;on ne recupere pas l&#39;ancienne configuration du signal.&lt;/span&gt;" style="text;html=1;align=center;verticalAlign=middle;whiteSpace=wrap;rounded=0;" parent="1" vertex="1">
          <mxGeometry x="840" y="1185" width="200" height="30" as="geometry" />
        </mxCell>
        <mxCell id="a_ZhXs76VvJXivsuq5wO-85" value="" style="shape=flexArrow;endArrow=classic;html=1;rounded=0;exitX=1;exitY=0.5;exitDx=0;exitDy=0;entryX=0;entryY=0.5;entryDx=0;entryDy=0;" parent="1" source="a_ZhXs76VvJXivsuq5wO-66" target="a_ZhXs76VvJXivsuq5wO-86" edge="1">
          <mxGeometry width="50" height="50" relative="1" as="geometry">
            <mxPoint x="825" y="1320" as="sourcePoint" />
            <mxPoint x="1075" y="1270" as="targetPoint" />
          </mxGeometry>
        </mxCell>
        <mxCell id="a_ZhXs76VvJXivsuq5wO-86" value="&lt;span style=&quot;text-align: left;&quot;&gt;associe &#39;sa&#39; au signal SIGUSR2, NULL est la pour dire qu&#39;on ne recupere pas l&#39;ancienne configuration du signal.&lt;/span&gt;" style="text;html=1;align=center;verticalAlign=middle;whiteSpace=wrap;rounded=0;" parent="1" vertex="1">
          <mxGeometry x="850" y="1275" width="170" height="30" as="geometry" />
        </mxCell>
        <mxCell id="a_ZhXs76VvJXivsuq5wO-88" value="&lt;b&gt;&lt;font style=&quot;font-size: 20px;&quot;&gt;2.1&lt;/font&gt;&lt;/b&gt;" style="ellipse;whiteSpace=wrap;html=1;fillColor=#d5e8d4;strokeColor=#82b366;" parent="1" vertex="1">
          <mxGeometry x="610" y="850" width="40" height="40" as="geometry" />
        </mxCell>
        <mxCell id="a_ZhXs76VvJXivsuq5wO-89" value="&lt;span style=&quot;font-size: 18px;&quot;&gt;&lt;b&gt;sigaction_config&lt;/b&gt;&lt;/span&gt;" style="text;html=1;align=center;verticalAlign=middle;whiteSpace=wrap;rounded=0;" parent="1" vertex="1">
          <mxGeometry x="650" y="855" width="185" height="30" as="geometry" />
        </mxCell>
        <mxCell id="a_ZhXs76VvJXivsuq5wO-90" value="" style="rounded=0;whiteSpace=wrap;html=1;fillColor=#d5e8d4;strokeColor=#82b366;" parent="1" vertex="1">
          <mxGeometry x="1140" y="840" width="485" height="630" as="geometry" />
        </mxCell>
        <mxCell id="a_ZhXs76VvJXivsuq5wO-91" value="&lt;b&gt;&lt;font style=&quot;font-size: 20px;&quot;&gt;2.2&lt;/font&gt;&lt;/b&gt;" style="ellipse;whiteSpace=wrap;html=1;fillColor=#d5e8d4;strokeColor=#82b366;" parent="1" vertex="1">
          <mxGeometry x="1155" y="850" width="40" height="40" as="geometry" />
        </mxCell>
        <mxCell id="a_ZhXs76VvJXivsuq5wO-92" value="&lt;span style=&quot;font-size: 18px;&quot;&gt;&lt;b&gt;handle_signal(signal)&lt;/b&gt;&lt;/span&gt;" style="text;html=1;align=center;verticalAlign=middle;whiteSpace=wrap;rounded=0;" parent="1" vertex="1">
          <mxGeometry x="1195" y="855" width="205" height="30" as="geometry" />
        </mxCell>
        <mxCell id="a_ZhXs76VvJXivsuq5wO-98" value="" style="edgeStyle=orthogonalEdgeStyle;rounded=0;orthogonalLoop=1;jettySize=auto;html=1;" parent="1" source="a_ZhXs76VvJXivsuq5wO-93" target="a_ZhXs76VvJXivsuq5wO-97" edge="1">
          <mxGeometry relative="1" as="geometry" />
        </mxCell>
        <mxCell id="a_ZhXs76VvJXivsuq5wO-99" value="vrai" style="edgeLabel;html=1;align=center;verticalAlign=middle;resizable=0;points=[];" parent="a_ZhXs76VvJXivsuq5wO-98" vertex="1" connectable="0">
          <mxGeometry x="-0.5186" y="3" relative="1" as="geometry">
            <mxPoint as="offset" />
          </mxGeometry>
        </mxCell>
        <mxCell id="a_ZhXs76VvJXivsuq5wO-101" value="" style="edgeStyle=orthogonalEdgeStyle;rounded=0;orthogonalLoop=1;jettySize=auto;html=1;" parent="1" source="a_ZhXs76VvJXivsuq5wO-93" target="a_ZhXs76VvJXivsuq5wO-100" edge="1">
          <mxGeometry relative="1" as="geometry" />
        </mxCell>
        <mxCell id="a_ZhXs76VvJXivsuq5wO-102" value="faux" style="edgeLabel;html=1;align=center;verticalAlign=middle;resizable=0;points=[];" parent="a_ZhXs76VvJXivsuq5wO-101" vertex="1" connectable="0">
          <mxGeometry x="-0.1035" relative="1" as="geometry">
            <mxPoint y="-7" as="offset" />
          </mxGeometry>
        </mxCell>
        <mxCell id="a_ZhXs76VvJXivsuq5wO-93" value="signal == &lt;br&gt;SIGUR2 (1)" style="rhombus;whiteSpace=wrap;html=1;" parent="1" vertex="1">
          <mxGeometry x="1256.88" y="980" width="91.25" height="80" as="geometry" />
        </mxCell>
        <mxCell id="a_ZhXs76VvJXivsuq5wO-95" style="edgeStyle=orthogonalEdgeStyle;rounded=0;orthogonalLoop=1;jettySize=auto;html=1;entryX=0.5;entryY=0;entryDx=0;entryDy=0;" parent="1" source="a_ZhXs76VvJXivsuq5wO-94" target="a_ZhXs76VvJXivsuq5wO-93" edge="1">
          <mxGeometry relative="1" as="geometry" />
        </mxCell>
        <mxCell id="a_ZhXs76VvJXivsuq5wO-94" value="static char current_char = 0;&lt;div&gt;static int bit_index = 0;&lt;/div&gt;" style="rounded=0;whiteSpace=wrap;html=1;align=left;" parent="1" vertex="1">
          <mxGeometry x="1215" y="905" width="175" height="35" as="geometry" />
        </mxCell>
        <mxCell id="a_ZhXs76VvJXivsuq5wO-104" style="edgeStyle=orthogonalEdgeStyle;rounded=0;orthogonalLoop=1;jettySize=auto;html=1;" parent="1" source="a_ZhXs76VvJXivsuq5wO-97" edge="1">
          <mxGeometry relative="1" as="geometry">
            <Array as="points">
              <mxPoint x="1480" y="1100" />
              <mxPoint x="1302" y="1100" />
            </Array>
            <mxPoint x="1303" y="1100" as="targetPoint" />
          </mxGeometry>
        </mxCell>
        <mxCell id="a_ZhXs76VvJXivsuq5wO-97" value="current_char |= (1 &amp;lt;&amp;lt; bit_index)&lt;br&gt;(on met le bit a la position bit_index a 1) (operateur | met a 1, operateur &amp;lt;&amp;lt; permet d&#39;aller au bit de l&#39;index)" style="whiteSpace=wrap;html=1;" parent="1" vertex="1">
          <mxGeometry x="1380" y="980" width="200" height="80" as="geometry" />
        </mxCell>
        <mxCell id="a_ZhXs76VvJXivsuq5wO-106" style="edgeStyle=orthogonalEdgeStyle;rounded=0;orthogonalLoop=1;jettySize=auto;html=1;" parent="1" source="a_ZhXs76VvJXivsuq5wO-100" target="a_ZhXs76VvJXivsuq5wO-105" edge="1">
          <mxGeometry relative="1" as="geometry" />
        </mxCell>
        <mxCell id="a_ZhXs76VvJXivsuq5wO-100" value="bit_index++;" style="whiteSpace=wrap;html=1;" parent="1" vertex="1">
          <mxGeometry x="1265.63" y="1130" width="73.76" height="30" as="geometry" />
        </mxCell>
        <mxCell id="a_ZhXs76VvJXivsuq5wO-108" value="" style="edgeStyle=orthogonalEdgeStyle;rounded=0;orthogonalLoop=1;jettySize=auto;html=1;entryX=0;entryY=0.5;entryDx=0;entryDy=0;" parent="1" source="a_ZhXs76VvJXivsuq5wO-105" target="a_ZhXs76VvJXivsuq5wO-110" edge="1">
          <mxGeometry relative="1" as="geometry">
            <mxPoint x="1402.5100000000002" y="1195" as="targetPoint" />
          </mxGeometry>
        </mxCell>
        <mxCell id="a_ZhXs76VvJXivsuq5wO-109" value="vrai" style="edgeLabel;html=1;align=center;verticalAlign=middle;resizable=0;points=[];" parent="a_ZhXs76VvJXivsuq5wO-108" vertex="1" connectable="0">
          <mxGeometry x="0.1634" y="-3" relative="1" as="geometry">
            <mxPoint x="-10" y="-3" as="offset" />
          </mxGeometry>
        </mxCell>
        <mxCell id="a_ZhXs76VvJXivsuq5wO-114" value="" style="edgeStyle=orthogonalEdgeStyle;rounded=0;orthogonalLoop=1;jettySize=auto;html=1;" parent="1" source="a_ZhXs76VvJXivsuq5wO-105" target="a_ZhXs76VvJXivsuq5wO-113" edge="1">
          <mxGeometry relative="1" as="geometry" />
        </mxCell>
        <mxCell id="1GNT8R902nHoWRoQOwS2-52" value="faux" style="edgeLabel;html=1;align=center;verticalAlign=middle;resizable=0;points=[];" vertex="1" connectable="0" parent="a_ZhXs76VvJXivsuq5wO-114">
          <mxGeometry x="-0.4578" y="3" relative="1" as="geometry">
            <mxPoint as="offset" />
          </mxGeometry>
        </mxCell>
        <mxCell id="a_ZhXs76VvJXivsuq5wO-105" value="bit_index&lt;br&gt;== 8" style="rhombus;whiteSpace=wrap;html=1;" parent="1" vertex="1">
          <mxGeometry x="1262.51" y="1185" width="80" height="80" as="geometry" />
        </mxCell>
        <mxCell id="a_ZhXs76VvJXivsuq5wO-112" value="" style="edgeStyle=orthogonalEdgeStyle;rounded=0;orthogonalLoop=1;jettySize=auto;html=1;" parent="1" source="a_ZhXs76VvJXivsuq5wO-110" target="a_ZhXs76VvJXivsuq5wO-111" edge="1">
          <mxGeometry relative="1" as="geometry" />
        </mxCell>
        <mxCell id="a_ZhXs76VvJXivsuq5wO-110" value="write(1, current_char, 1)" style="shape=process;whiteSpace=wrap;html=1;backgroundOutline=1;" parent="1" vertex="1">
          <mxGeometry x="1390" y="1212.5" width="180" height="25" as="geometry" />
        </mxCell>
        <mxCell id="a_ZhXs76VvJXivsuq5wO-115" style="edgeStyle=orthogonalEdgeStyle;rounded=0;orthogonalLoop=1;jettySize=auto;html=1;exitX=0.5;exitY=1;exitDx=0;exitDy=0;" parent="1" source="a_ZhXs76VvJXivsuq5wO-111" edge="1">
          <mxGeometry relative="1" as="geometry">
            <Array as="points">
              <mxPoint x="1480" y="1370" />
              <mxPoint x="1302" y="1370" />
            </Array>
            <mxPoint x="1303" y="1370" as="targetPoint" />
          </mxGeometry>
        </mxCell>
        <mxCell id="a_ZhXs76VvJXivsuq5wO-111" value="&lt;span style=&quot;text-align: left;&quot;&gt;current_char = 0;&lt;/span&gt;&lt;div style=&quot;text-align: left;&quot;&gt;bit_index = 0;&lt;/div&gt;" style="whiteSpace=wrap;html=1;" parent="1" vertex="1">
          <mxGeometry x="1420" y="1305" width="120" height="40" as="geometry" />
        </mxCell>
        <mxCell id="a_ZhXs76VvJXivsuq5wO-113" value="fin" style="whiteSpace=wrap;html=1;" parent="1" vertex="1">
          <mxGeometry x="1271.26" y="1417.5" width="62.51" height="25" as="geometry" />
        </mxCell>
        <mxCell id="1GNT8R902nHoWRoQOwS2-6" value="&lt;font style=&quot;font-size: 48px;&quot;&gt;Server&lt;/font&gt;" style="shape=document;whiteSpace=wrap;html=1;boundedLbl=1;" vertex="1" parent="1">
          <mxGeometry x="600" y="600" width="450" height="180" as="geometry" />
        </mxCell>
        <mxCell id="1GNT8R902nHoWRoQOwS2-7" value="" style="rounded=0;whiteSpace=wrap;html=1;fillColor=#fff2cc;strokeColor=#d6b656;" vertex="1" parent="1">
          <mxGeometry x="72.5" y="2036.25" width="370" height="320" as="geometry" />
        </mxCell>
        <mxCell id="1GNT8R902nHoWRoQOwS2-9" value="&lt;b style=&quot;&quot;&gt;&lt;font style=&quot;font-size: 18px;&quot;&gt;send_msg_to_server_at_pid&lt;/font&gt;&lt;/b&gt;" style="text;html=1;align=center;verticalAlign=middle;whiteSpace=wrap;rounded=0;" vertex="1" parent="1">
          <mxGeometry x="122.5" y="2051.25" width="260" height="30" as="geometry" />
        </mxCell>
        <mxCell id="1GNT8R902nHoWRoQOwS2-10" value="&lt;b&gt;&lt;font style=&quot;font-size: 20px;&quot;&gt;3&lt;/font&gt;&lt;/b&gt;" style="ellipse;whiteSpace=wrap;html=1;fillColor=#fff2cc;strokeColor=#d6b656;" vertex="1" parent="1">
          <mxGeometry x="82.5" y="2041.25" width="40" height="40" as="geometry" />
        </mxCell>
        <mxCell id="1GNT8R902nHoWRoQOwS2-13" value="" style="edgeStyle=orthogonalEdgeStyle;rounded=0;orthogonalLoop=1;jettySize=auto;html=1;entryX=0.5;entryY=0;entryDx=0;entryDy=0;" edge="1" parent="1" source="1GNT8R902nHoWRoQOwS2-11" target="1GNT8R902nHoWRoQOwS2-14">
          <mxGeometry relative="1" as="geometry">
            <mxPoint x="357.5" y="2216.25" as="targetPoint" />
          </mxGeometry>
        </mxCell>
        <mxCell id="1GNT8R902nHoWRoQOwS2-17" style="edgeStyle=orthogonalEdgeStyle;rounded=0;orthogonalLoop=1;jettySize=auto;html=1;entryX=0;entryY=0.5;entryDx=0;entryDy=0;shape=flexArrow;" edge="1" parent="1" source="1GNT8R902nHoWRoQOwS2-11" target="1GNT8R902nHoWRoQOwS2-16">
          <mxGeometry relative="1" as="geometry" />
        </mxCell>
        <mxCell id="1GNT8R902nHoWRoQOwS2-11" value="main (int ac, char **av)" style="rounded=0;whiteSpace=wrap;html=1;" vertex="1" parent="1">
          <mxGeometry x="131.25" y="2106.25" width="140" height="27.5" as="geometry" />
        </mxCell>
        <mxCell id="1GNT8R902nHoWRoQOwS2-20" style="edgeStyle=orthogonalEdgeStyle;rounded=0;orthogonalLoop=1;jettySize=auto;html=1;entryX=0;entryY=0.5;entryDx=0;entryDy=0;shape=flexArrow;" edge="1" parent="1" source="1GNT8R902nHoWRoQOwS2-14" target="1GNT8R902nHoWRoQOwS2-19">
          <mxGeometry relative="1" as="geometry" />
        </mxCell>
        <mxCell id="1GNT8R902nHoWRoQOwS2-22" value="" style="edgeStyle=orthogonalEdgeStyle;rounded=0;orthogonalLoop=1;jettySize=auto;html=1;entryX=0.5;entryY=0;entryDx=0;entryDy=0;" edge="1" parent="1" source="1GNT8R902nHoWRoQOwS2-14" target="1GNT8R902nHoWRoQOwS2-23">
          <mxGeometry relative="1" as="geometry">
            <mxPoint x="201.25" y="2248.75" as="targetPoint" />
          </mxGeometry>
        </mxCell>
        <mxCell id="1GNT8R902nHoWRoQOwS2-14" value="int pid = atoi(av[1])" style="shape=process;whiteSpace=wrap;html=1;backgroundOutline=1;" vertex="1" parent="1">
          <mxGeometry x="131.25" y="2153.75" width="140" height="30" as="geometry" />
        </mxCell>
        <mxCell id="1GNT8R902nHoWRoQOwS2-16" value="av contains the pid and a msg to send" style="text;html=1;align=center;verticalAlign=middle;whiteSpace=wrap;rounded=0;" vertex="1" parent="1">
          <mxGeometry x="312.5" y="2105" width="120" height="30" as="geometry" />
        </mxCell>
        <mxCell id="1GNT8R902nHoWRoQOwS2-19" value="convert the string with pid to an int" style="text;html=1;align=center;verticalAlign=middle;whiteSpace=wrap;rounded=0;" vertex="1" parent="1">
          <mxGeometry x="312.5" y="2153.75" width="110" height="30" as="geometry" />
        </mxCell>
        <mxCell id="1GNT8R902nHoWRoQOwS2-27" style="edgeStyle=orthogonalEdgeStyle;rounded=0;orthogonalLoop=1;jettySize=auto;html=1;entryX=0;entryY=0.5;entryDx=0;entryDy=0;shape=flexArrow;" edge="1" parent="1" source="1GNT8R902nHoWRoQOwS2-23" target="1GNT8R902nHoWRoQOwS2-24">
          <mxGeometry relative="1" as="geometry" />
        </mxCell>
        <mxCell id="1GNT8R902nHoWRoQOwS2-29" value="" style="edgeStyle=orthogonalEdgeStyle;rounded=0;orthogonalLoop=1;jettySize=auto;html=1;" edge="1" parent="1" source="1GNT8R902nHoWRoQOwS2-23" target="1GNT8R902nHoWRoQOwS2-28">
          <mxGeometry relative="1" as="geometry" />
        </mxCell>
        <mxCell id="1GNT8R902nHoWRoQOwS2-23" value="send msg" style="shape=process;whiteSpace=wrap;html=1;backgroundOutline=1;" vertex="1" parent="1">
          <mxGeometry x="141.25" y="2231.25" width="120" height="30" as="geometry" />
        </mxCell>
        <mxCell id="1GNT8R902nHoWRoQOwS2-24" value="" style="rounded=0;whiteSpace=wrap;html=1;fillColor=#fff2cc;strokeColor=#d6b656;" vertex="1" parent="1">
          <mxGeometry x="512.5" y="2036.25" width="460" height="420" as="geometry" />
        </mxCell>
        <mxCell id="1GNT8R902nHoWRoQOwS2-25" value="&lt;b style=&quot;&quot;&gt;&lt;font style=&quot;font-size: 18px;&quot;&gt;send_msg&lt;/font&gt;&lt;/b&gt;" style="text;html=1;align=center;verticalAlign=middle;whiteSpace=wrap;rounded=0;" vertex="1" parent="1">
          <mxGeometry x="562.5" y="2051.25" width="110" height="30" as="geometry" />
        </mxCell>
        <mxCell id="1GNT8R902nHoWRoQOwS2-26" value="&lt;b&gt;&lt;font style=&quot;font-size: 20px;&quot;&gt;3.1&lt;/font&gt;&lt;/b&gt;" style="ellipse;whiteSpace=wrap;html=1;fillColor=#fff2cc;strokeColor=#d6b656;" vertex="1" parent="1">
          <mxGeometry x="522.5" y="2041.25" width="40" height="40" as="geometry" />
        </mxCell>
        <mxCell id="1GNT8R902nHoWRoQOwS2-28" value="fin" style="whiteSpace=wrap;html=1;" vertex="1" parent="1">
          <mxGeometry x="185.6300000000001" y="2296.25" width="31.25" height="30" as="geometry" />
        </mxCell>
        <mxCell id="1GNT8R902nHoWRoQOwS2-30" value="fin" style="whiteSpace=wrap;html=1;rounded=0;" vertex="1" parent="1">
          <mxGeometry x="690" y="1350" width="40" height="27.5" as="geometry" />
        </mxCell>
        <mxCell id="1GNT8R902nHoWRoQOwS2-37" style="edgeStyle=orthogonalEdgeStyle;rounded=0;orthogonalLoop=1;jettySize=auto;html=1;entryX=0.5;entryY=0;entryDx=0;entryDy=0;" edge="1" parent="1" source="1GNT8R902nHoWRoQOwS2-33" target="1GNT8R902nHoWRoQOwS2-36">
          <mxGeometry relative="1" as="geometry" />
        </mxCell>
        <mxCell id="1GNT8R902nHoWRoQOwS2-33" value="msg_len = str_len(msg)" style="shape=process;whiteSpace=wrap;html=1;backgroundOutline=1;" vertex="1" parent="1">
          <mxGeometry x="532.5" y="2188.75" width="180" height="25" as="geometry" />
        </mxCell>
        <mxCell id="1GNT8R902nHoWRoQOwS2-35" style="edgeStyle=orthogonalEdgeStyle;rounded=0;orthogonalLoop=1;jettySize=auto;html=1;entryX=0.5;entryY=0;entryDx=0;entryDy=0;" edge="1" parent="1" source="1GNT8R902nHoWRoQOwS2-34" target="1GNT8R902nHoWRoQOwS2-33">
          <mxGeometry relative="1" as="geometry" />
        </mxCell>
        <mxCell id="1GNT8R902nHoWRoQOwS2-34" value="int char_index = 0&lt;div&gt;int msg_len = 0&lt;/div&gt;" style="rounded=0;whiteSpace=wrap;html=1;" vertex="1" parent="1">
          <mxGeometry x="562.5" y="2106.25" width="120" height="50" as="geometry" />
        </mxCell>
        <mxCell id="1GNT8R902nHoWRoQOwS2-39" style="edgeStyle=orthogonalEdgeStyle;rounded=0;orthogonalLoop=1;jettySize=auto;html=1;entryX=0;entryY=0.5;entryDx=0;entryDy=0;" edge="1" parent="1" source="1GNT8R902nHoWRoQOwS2-36" target="1GNT8R902nHoWRoQOwS2-38">
          <mxGeometry relative="1" as="geometry" />
        </mxCell>
        <mxCell id="1GNT8R902nHoWRoQOwS2-41" value="vrai" style="edgeLabel;html=1;align=center;verticalAlign=middle;resizable=0;points=[];" vertex="1" connectable="0" parent="1GNT8R902nHoWRoQOwS2-39">
          <mxGeometry x="-0.3112" relative="1" as="geometry">
            <mxPoint x="-1" as="offset" />
          </mxGeometry>
        </mxCell>
        <mxCell id="1GNT8R902nHoWRoQOwS2-43" value="" style="edgeStyle=orthogonalEdgeStyle;rounded=0;orthogonalLoop=1;jettySize=auto;html=1;" edge="1" parent="1" source="1GNT8R902nHoWRoQOwS2-36" target="1GNT8R902nHoWRoQOwS2-42">
          <mxGeometry relative="1" as="geometry" />
        </mxCell>
        <mxCell id="1GNT8R902nHoWRoQOwS2-51" value="faux" style="edgeLabel;html=1;align=center;verticalAlign=middle;resizable=0;points=[];" vertex="1" connectable="0" parent="1GNT8R902nHoWRoQOwS2-43">
          <mxGeometry x="-0.7477" y="2" relative="1" as="geometry">
            <mxPoint x="-2" y="4" as="offset" />
          </mxGeometry>
        </mxCell>
        <mxCell id="1GNT8R902nHoWRoQOwS2-36" value="while (char_index++ &lt;br&gt;&amp;lt; msg_len)" style="rhombus;whiteSpace=wrap;html=1;" vertex="1" parent="1">
          <mxGeometry x="547.5" y="2266.25" width="150" height="110" as="geometry" />
        </mxCell>
        <mxCell id="1GNT8R902nHoWRoQOwS2-40" style="edgeStyle=orthogonalEdgeStyle;rounded=0;orthogonalLoop=1;jettySize=auto;html=1;exitX=0.5;exitY=0;exitDx=0;exitDy=0;" edge="1" parent="1" source="1GNT8R902nHoWRoQOwS2-38">
          <mxGeometry relative="1" as="geometry">
            <mxPoint x="622.5" y="2246.25" as="targetPoint" />
            <Array as="points">
              <mxPoint x="802.5" y="2246.25" />
              <mxPoint x="622.5" y="2246.25" />
            </Array>
          </mxGeometry>
        </mxCell>
        <mxCell id="1GNT8R902nHoWRoQOwS2-72" style="edgeStyle=orthogonalEdgeStyle;rounded=0;orthogonalLoop=1;jettySize=auto;html=1;entryX=-0.002;entryY=0.572;entryDx=0;entryDy=0;shape=flexArrow;entryPerimeter=0;" edge="1" parent="1" source="1GNT8R902nHoWRoQOwS2-38" target="1GNT8R902nHoWRoQOwS2-44">
          <mxGeometry relative="1" as="geometry" />
        </mxCell>
        <mxCell id="1GNT8R902nHoWRoQOwS2-38" value="send_char(msg[char_index])" style="shape=process;whiteSpace=wrap;html=1;backgroundOutline=1;" vertex="1" parent="1">
          <mxGeometry x="742.5" y="2303.75" width="200" height="35" as="geometry" />
        </mxCell>
        <mxCell id="1GNT8R902nHoWRoQOwS2-42" value="fin" style="whiteSpace=wrap;html=1;" vertex="1" parent="1">
          <mxGeometry x="602.5" y="2406.25" width="40" height="35" as="geometry" />
        </mxCell>
        <mxCell id="1GNT8R902nHoWRoQOwS2-44" value="" style="rounded=0;whiteSpace=wrap;html=1;fillColor=#fff2cc;strokeColor=#d6b656;" vertex="1" parent="1">
          <mxGeometry x="1012.5" y="2036.25" width="580" height="500" as="geometry" />
        </mxCell>
        <mxCell id="1GNT8R902nHoWRoQOwS2-45" value="&lt;b style=&quot;&quot;&gt;&lt;font style=&quot;font-size: 18px;&quot;&gt;send_char&lt;/font&gt;&lt;/b&gt;" style="text;html=1;align=center;verticalAlign=middle;whiteSpace=wrap;rounded=0;" vertex="1" parent="1">
          <mxGeometry x="1062.5" y="2051.25" width="110" height="30" as="geometry" />
        </mxCell>
        <mxCell id="1GNT8R902nHoWRoQOwS2-46" value="&lt;b&gt;&lt;font style=&quot;font-size: 20px;&quot;&gt;3.2&lt;/font&gt;&lt;/b&gt;" style="ellipse;whiteSpace=wrap;html=1;fillColor=#fff2cc;strokeColor=#d6b656;" vertex="1" parent="1">
          <mxGeometry x="1022.5" y="2041.25" width="40" height="40" as="geometry" />
        </mxCell>
        <mxCell id="1GNT8R902nHoWRoQOwS2-49" value="" style="edgeStyle=orthogonalEdgeStyle;rounded=0;orthogonalLoop=1;jettySize=auto;html=1;" edge="1" parent="1" source="1GNT8R902nHoWRoQOwS2-47" target="1GNT8R902nHoWRoQOwS2-48">
          <mxGeometry relative="1" as="geometry" />
        </mxCell>
        <mxCell id="1GNT8R902nHoWRoQOwS2-47" value="&lt;div&gt;(char input)&lt;/div&gt;int char_index = 0&lt;div&gt;int bit = 0&lt;/div&gt;" style="rounded=0;whiteSpace=wrap;html=1;" vertex="1" parent="1">
          <mxGeometry x="1057.5" y="2086.25" width="120" height="50" as="geometry" />
        </mxCell>
        <mxCell id="1GNT8R902nHoWRoQOwS2-55" value="" style="edgeStyle=orthogonalEdgeStyle;rounded=0;orthogonalLoop=1;jettySize=auto;html=1;" edge="1" parent="1" source="1GNT8R902nHoWRoQOwS2-48" target="1GNT8R902nHoWRoQOwS2-54">
          <mxGeometry relative="1" as="geometry" />
        </mxCell>
        <mxCell id="1GNT8R902nHoWRoQOwS2-56" value="faux" style="edgeLabel;html=1;align=center;verticalAlign=middle;resizable=0;points=[];" vertex="1" connectable="0" parent="1GNT8R902nHoWRoQOwS2-55">
          <mxGeometry x="-0.1882" relative="1" as="geometry">
            <mxPoint as="offset" />
          </mxGeometry>
        </mxCell>
        <mxCell id="1GNT8R902nHoWRoQOwS2-58" value="" style="edgeStyle=orthogonalEdgeStyle;rounded=0;orthogonalLoop=1;jettySize=auto;html=1;entryX=0;entryY=0.5;entryDx=0;entryDy=0;" edge="1" parent="1" source="1GNT8R902nHoWRoQOwS2-48" target="1GNT8R902nHoWRoQOwS2-60">
          <mxGeometry relative="1" as="geometry">
            <mxPoint x="1232.5" y="2228.75" as="targetPoint" />
          </mxGeometry>
        </mxCell>
        <mxCell id="1GNT8R902nHoWRoQOwS2-62" value="vrai" style="edgeLabel;html=1;align=center;verticalAlign=middle;resizable=0;points=[];" vertex="1" connectable="0" parent="1GNT8R902nHoWRoQOwS2-58">
          <mxGeometry x="-0.5771" relative="1" as="geometry">
            <mxPoint as="offset" />
          </mxGeometry>
        </mxCell>
        <mxCell id="1GNT8R902nHoWRoQOwS2-48" value="while (char_index++&lt;br&gt;&amp;lt; 8)" style="rhombus;whiteSpace=wrap;html=1;rounded=0;" vertex="1" parent="1">
          <mxGeometry x="1070" y="2188.75" width="95" height="80" as="geometry" />
        </mxCell>
        <mxCell id="1GNT8R902nHoWRoQOwS2-54" value="fin" style="whiteSpace=wrap;html=1;rounded=0;" vertex="1" parent="1">
          <mxGeometry x="1057.5" y="2446.25" width="120" height="60" as="geometry" />
        </mxCell>
        <mxCell id="1GNT8R902nHoWRoQOwS2-66" style="edgeStyle=orthogonalEdgeStyle;rounded=0;orthogonalLoop=1;jettySize=auto;html=1;entryX=0.5;entryY=0;entryDx=0;entryDy=0;" edge="1" parent="1" source="1GNT8R902nHoWRoQOwS2-60" target="1GNT8R902nHoWRoQOwS2-65">
          <mxGeometry relative="1" as="geometry" />
        </mxCell>
        <mxCell id="1GNT8R902nHoWRoQOwS2-60" value="bit = input &amp;amp; (0x01 &amp;lt;&amp;lt; char_index)&lt;br&gt;(on recupere le bit a l&#39;index dans le char)" style="rounded=0;whiteSpace=wrap;html=1;" vertex="1" parent="1">
          <mxGeometry x="1202.5" y="2208.13" width="230" height="41.25" as="geometry" />
        </mxCell>
        <mxCell id="1GNT8R902nHoWRoQOwS2-63" value="kill(pid, SIGUSR2)" style="shape=process;whiteSpace=wrap;html=1;backgroundOutline=1;" vertex="1" parent="1">
          <mxGeometry x="1242.5" y="2391.25" width="150" height="25" as="geometry" />
        </mxCell>
        <mxCell id="1GNT8R902nHoWRoQOwS2-71" style="edgeStyle=orthogonalEdgeStyle;rounded=0;orthogonalLoop=1;jettySize=auto;html=1;" edge="1" parent="1" source="1GNT8R902nHoWRoQOwS2-64">
          <mxGeometry relative="1" as="geometry">
            <mxPoint x="1572.5" y="2316.25" as="targetPoint" />
          </mxGeometry>
        </mxCell>
        <mxCell id="1GNT8R902nHoWRoQOwS2-64" value="kill(pid, SIGUSR1)" style="shape=process;whiteSpace=wrap;html=1;backgroundOutline=1;" vertex="1" parent="1">
          <mxGeometry x="1392.5" y="2303.75" width="150" height="25" as="geometry" />
        </mxCell>
        <mxCell id="1GNT8R902nHoWRoQOwS2-67" style="edgeStyle=orthogonalEdgeStyle;rounded=0;orthogonalLoop=1;jettySize=auto;html=1;entryX=0;entryY=0.5;entryDx=0;entryDy=0;" edge="1" parent="1" source="1GNT8R902nHoWRoQOwS2-65" target="1GNT8R902nHoWRoQOwS2-64">
          <mxGeometry relative="1" as="geometry" />
        </mxCell>
        <mxCell id="1GNT8R902nHoWRoQOwS2-69" value="vrai" style="edgeLabel;html=1;align=center;verticalAlign=middle;resizable=0;points=[];" vertex="1" connectable="0" parent="1GNT8R902nHoWRoQOwS2-67">
          <mxGeometry x="-0.4113" y="1" relative="1" as="geometry">
            <mxPoint as="offset" />
          </mxGeometry>
        </mxCell>
        <mxCell id="1GNT8R902nHoWRoQOwS2-68" value="faux" style="edgeStyle=orthogonalEdgeStyle;rounded=0;orthogonalLoop=1;jettySize=auto;html=1;entryX=0.5;entryY=0;entryDx=0;entryDy=0;" edge="1" parent="1" source="1GNT8R902nHoWRoQOwS2-65" target="1GNT8R902nHoWRoQOwS2-63">
          <mxGeometry relative="1" as="geometry" />
        </mxCell>
        <mxCell id="1GNT8R902nHoWRoQOwS2-65" value="bit == 0 ?" style="rhombus;whiteSpace=wrap;html=1;" vertex="1" parent="1">
          <mxGeometry x="1277.5" y="2276.25" width="80" height="80" as="geometry" />
        </mxCell>
        <mxCell id="1GNT8R902nHoWRoQOwS2-70" style="edgeStyle=orthogonalEdgeStyle;rounded=0;orthogonalLoop=1;jettySize=auto;html=1;exitX=0.5;exitY=1;exitDx=0;exitDy=0;" edge="1" parent="1" source="1GNT8R902nHoWRoQOwS2-63">
          <mxGeometry relative="1" as="geometry">
            <mxPoint x="1122.5" y="2166.25" as="targetPoint" />
            <Array as="points">
              <mxPoint x="1317.5" y="2436.25" />
              <mxPoint x="1572.5" y="2436.25" />
              <mxPoint x="1572.5" y="2166.25" />
              <mxPoint x="1317.5" y="2166.25" />
            </Array>
          </mxGeometry>
        </mxCell>
        <mxCell id="1GNT8R902nHoWRoQOwS2-73" value="&lt;font style=&quot;font-size: 48px;&quot;&gt;Client&lt;/font&gt;" style="shape=document;whiteSpace=wrap;html=1;boundedLbl=1;" vertex="1" parent="1">
          <mxGeometry x="612.5" y="1705" width="450" height="180" as="geometry" />
        </mxCell>
        <mxCell id="1GNT8R902nHoWRoQOwS2-75" value="&lt;h1 style=&quot;margin-top: 0px;&quot;&gt;GETPID&lt;/h1&gt;&lt;p&gt;&lt;br&gt;&lt;/p&gt;&lt;p&gt;&lt;font style=&quot;background-color: transparent; color: rgb(255, 51, 51);&quot;&gt;- pid_t&lt;/font&gt;&lt;span style=&quot;background-color: transparent; color: light-dark(rgb(0, 0, 0), rgb(255, 255, 255));&quot;&gt;&amp;nbsp;get_pid(&lt;/span&gt;&lt;font style=&quot;background-color: transparent; color: rgb(102, 102, 255);&quot;&gt;void&lt;/font&gt;&lt;span style=&quot;background-color: transparent; color: light-dark(rgb(0, 0, 0), rgb(255, 255, 255));&quot;&gt;);&lt;/span&gt;&lt;br&gt;&lt;/p&gt;&lt;p&gt;output :&lt;/p&gt;&lt;p&gt;&lt;span style=&quot;color: light-dark(rgb(255, 51, 51), rgb(255, 51, 51)); background-color: transparent;&quot;&gt;&lt;span style=&quot;white-space: pre;&quot;&gt;&#x9;&lt;/span&gt;pid_t&amp;nbsp;&lt;span style=&quot;white-space: pre;&quot;&gt;&#x9;&lt;/span&gt;-&amp;gt;&amp;nbsp; le numero du processus au format pid_t (format numerique qu&#39;on peut stocker en int)&lt;/span&gt;&lt;/p&gt;&lt;p&gt;input :&lt;/p&gt;&lt;p&gt;&lt;span style=&quot;color: rgb(102, 102, 255);&quot;&gt;&lt;span style=&quot;white-space: pre;&quot;&gt;&#x9;&lt;/span&gt;void&lt;/span&gt;&lt;br&gt;&lt;/p&gt;&lt;p&gt;&lt;/p&gt;&lt;p&gt;&lt;/p&gt;" style="text;html=1;whiteSpace=wrap;overflow=hidden;rounded=0;verticalAlign=top;align=left;strokeColor=default;" vertex="1" parent="1">
          <mxGeometry x="42.5" y="2680" width="550" height="220" as="geometry" />
        </mxCell>
        <mxCell id="1GNT8R902nHoWRoQOwS2-76" value="&lt;h1 style=&quot;margin-top: 0px;&quot;&gt;KILL&lt;/h1&gt;&lt;p&gt;&lt;br&gt;&lt;/p&gt;&lt;p&gt;&lt;font style=&quot;background-color: transparent; color: rgb(255, 51, 51);&quot;&gt;- int&lt;/font&gt;&lt;span style=&quot;background-color: transparent; color: light-dark(rgb(0, 0, 0), rgb(255, 255, 255));&quot;&gt;&amp;nbsp;kill(&lt;/span&gt;&lt;font style=&quot;color: rgb(0, 153, 0);&quot;&gt;&lt;span style=&quot;background-color: transparent;&quot; class=&quot;hljs-type&quot;&gt;pid_t&lt;/span&gt;&lt;span style=&quot;background-color: transparent;&quot;&gt; pid&lt;/span&gt;&lt;/font&gt;&lt;span style=&quot;background-color: transparent; color: light-dark(rgb(0, 0, 0), rgb(255, 255, 255));&quot;&gt;, &lt;/span&gt;&lt;font style=&quot;color: rgb(255, 153, 51);&quot;&gt;&lt;span style=&quot;background-color: transparent;&quot; class=&quot;hljs-type&quot;&gt;int&lt;/span&gt;&lt;span style=&quot;background-color: transparent;&quot;&gt; sig&lt;/span&gt;&lt;/font&gt;&lt;span style=&quot;background-color: transparent; color: light-dark(rgb(0, 0, 0), rgb(255, 255, 255));&quot;&gt;);&lt;/span&gt;&lt;/p&gt;&lt;p&gt;output :&lt;/p&gt;&lt;p&gt;&lt;span style=&quot;color: light-dark(rgb(255, 51, 51), rgb(255, 51, 51)); background-color: transparent;&quot;&gt;&lt;span style=&quot;white-space: pre;&quot;&gt;&#x9;&lt;/span&gt;int&amp;nbsp;&lt;span style=&quot;white-space: pre;&quot;&gt;&#x9;&lt;/span&gt;&lt;span style=&quot;white-space: pre;&quot;&gt;&#x9;&lt;/span&gt;-&amp;gt;&amp;nbsp; 0 si pas d&#39;erreur, -1 si erreur&lt;/span&gt;&lt;/p&gt;&lt;p&gt;&lt;span style=&quot;background-color: transparent; color: light-dark(rgb(0, 0, 0), rgb(255, 255, 255));&quot;&gt;input :&lt;/span&gt;&lt;br&gt;&lt;/p&gt;&lt;p&gt;&lt;span style=&quot;color: rgb(102, 102, 255);&quot;&gt;&lt;span style=&quot;white-space: pre;&quot;&gt;&#x9;&lt;/span&gt;&lt;/span&gt;&lt;span style=&quot;background-color: transparent; color: rgb(0, 153, 0);&quot; class=&quot;hljs-type&quot;&gt;pid_t&lt;/span&gt;&lt;span style=&quot;background-color: transparent; color: rgb(0, 153, 0);&quot;&gt;&amp;nbsp;pid&lt;span style=&quot;white-space: pre;&quot;&gt;&#x9;&lt;/span&gt;-&amp;gt; le pid du processus auquel on veut envoyer le signal&lt;/span&gt;&lt;/p&gt;&lt;p&gt;&lt;span style=&quot;background-color: transparent; color: rgb(255, 153, 51);&quot; class=&quot;hljs-type&quot;&gt;&lt;span style=&quot;white-space: pre;&quot;&gt;&#x9;&lt;/span&gt;int&lt;/span&gt;&lt;span style=&quot;background-color: transparent; color: rgb(255, 153, 51);&quot;&gt;&amp;nbsp;sig&lt;span style=&quot;white-space: pre;&quot;&gt;&#x9;&lt;/span&gt;-&amp;gt; le signal qu&#39;on veut envoyer&lt;/span&gt;&lt;/p&gt;&lt;p&gt;&lt;/p&gt;&lt;p&gt;&lt;/p&gt;" style="text;html=1;whiteSpace=wrap;overflow=hidden;rounded=0;verticalAlign=top;align=left;strokeColor=default;" vertex="1" parent="1">
          <mxGeometry x="42.5" y="2910" width="390" height="230" as="geometry" />
        </mxCell>
      </root>
    </mxGraphModel>
  </diagram>
</mxfile>
